<svg id="6912a7d8-88fa-4dbf-8d51-ec18bc3e7cfb" data-name="Layer 1" xmlns="http://www.w3.org/2000/svg" viewBox="0 0 41.07 28.86"><defs><style>.\31 2a3a903-389f-418e-8c2b-031d77ae6401{fill:#efdb5a;}</style></defs><title>logo</title><path class="12a3a903-389f-418e-8c2b-031d77ae6401" d="M20.535,1A120.11,120.11,0,0,1,36.108,2.0218a3.7173,3.7173,0,0,1,2.7357,2.4371,41.3446,41.3446,0,0,1,.002,19.9342,3.7174,3.7174,0,0,1-2.731,2.4442A120.1316,120.1316,0,0,1,20.535,27.86,120.109,120.109,0,0,1,4.962,26.8382a3.7172,3.7172,0,0,1-2.7357-2.4371,41.3445,41.3445,0,0,1-.002-19.9342,3.7174,3.7174,0,0,1,2.731-2.4443A120.1327,120.1327,0,0,1,20.535,1m0-1a120.571,120.571,0,0,0-15.71,1.0312A4.7135,4.7135,0,0,0,1.2552,4.22a42.1508,42.1508,0,0,0,0,20.42,4.7135,4.7135,0,0,0,3.57,3.1889A120.57,120.57,0,0,0,20.535,28.86a120.57,120.57,0,0,0,15.71-1.0312,4.7135,4.7135,0,0,0,3.57-3.1889,42.1512,42.1512,0,0,0,0-20.42,4.7136,4.7136,0,0,0-3.57-3.1889A120.5709,120.5709,0,0,0,20.535,0Z"/><polygon class="12a3a903-389f-418e-8c2b-031d77ae6401" points="16.092 25.43 18.314 14.192 13.912 14.192 17.573 3.43 25.882 3.43 21.851 10.435 27.158 10.435 16.092 25.43"/></svg>